####
#
# OBJ File Generated by Meshlab
#
####
# Object headset_4.obj
#
# Vertices: 84
# Faces: 183
#
####
mtllib ./headset_4.obj.mtl

vn -0.1266601 -0.2595690 0.9573824
v -2.7128170 0.0860521 5.1537910
vn -0.1622870 0.4749941 0.8648952
v -4.7131410 6.1210842 4.8529215
vn -0.1246780 0.3869957 -0.9136136
v 0.0205098 6.1237373 -1.9794981
vn 0.6716740 0.2049585 -0.7119313
v -7.4487982 3.9783759 -3.6914735
vn -0.9211567 -0.3052616 -0.2414243
v -7.8847284 1.9129010 -3.7978547
vn -0.8244326 0.5098985 -0.2455902
v -7.9358053 4.1140614 -3.7966487
vn 0.7291342 0.6750170 0.1127630
v -7.4488001 3.9783330 -10.2138891
vn 0.7041902 -0.7070954 0.0642832
v -7.4488001 2.2325490 -10.2138891
vn -0.7047840 0.7060632 -0.0689513
v -7.8008852 3.9783330 -10.2138891
vn -0.6315418 -0.7629337 -0.1381567
v -7.8008852 2.2325490 -10.2138891
vn 0.4835174 0.7306789 0.4819952
v -6.3234472 3.9783330 -14.4268074
vn 0.6468658 -0.7555249 0.1036664
v -6.3234472 2.2325490 -14.4268074
vn -0.6652138 0.5610302 -0.4926822
v -6.7498922 3.9783330 -14.5425129
vn -0.4025133 -0.8317798 -0.3822636
v -6.7498922 2.2325490 -14.5425129
vn 0.0517354 0.8619354 0.5043718
v -3.1947651 3.9783330 -16.2795658
vn 0.2052824 -0.8531625 0.4795550
v -3.1947651 2.2325490 -16.2795658
vn -0.3319316 -0.1537587 -0.9306878
v -3.5125878 3.0837879 -16.5922527
vn -0.2199873 0.7372030 -0.6388563
v -7.3237739 6.0322480 -3.7943392
vn -0.1789144 0.9523365 0.2470725
v -0.9380429 6.0322804 -1.4116075
vn -0.1097088 -0.3400480 -0.9339868
v -7.3237748 0.1785758 -3.8013153
vn -0.8909500 0.3052835 -0.3361698
v -0.9380440 8.4330807 -3.4198847
vn -0.6826776 0.2094154 -0.7000689
v -0.9380441 9.8265867 -8.3501072
vn -0.8132990 -0.1497482 -0.5622457
v -0.9380451 9.2633610 -12.4183407
vn -0.9933049 0.0242498 -0.1129486
v -0.3536909 8.1627178 -15.1542587
vn -0.2052489 0.6607642 -0.7219859
v -0.8841347 4.5337267 -16.7821083
vn 0.1678325 -0.4673110 0.8680165
v 4.8733678 0.0972742 4.8285837
vn 0.1262434 0.5901211 0.7973831
v 4.4771209 6.1219859 4.8810430
vn 0.2391326 0.7730954 -0.5874855
v 7.3230324 6.0322533 -3.6763508
vn 0.9187931 0.3331785 -0.2116872
v 7.9574437 4.0956702 -3.1164222
vn 0.7251573 -0.5704095 -0.3857201
v -6.5071049 5.6521468 -2.2582970
vn 0.6004134 0.6452814 0.4723513
v 7.3313832 6.0344348 4.2956514
vn 0.1133508 -0.3433329 -0.9323487
v 7.3236680 0.1784638 -3.7985311
vn 0.4928620 -0.8483270 0.1934645
v 7.3274231 0.1768825 4.2851181
vn -0.7647234 -0.3228281 -0.5576559
v 7.4487982 2.2325230 -3.6910305
vn 0.8578069 -0.0387301 0.5125109
v 7.9986396 2.2687469 4.2173748
vn 0.6090643 0.7881646 -0.0885283
v 7.8008838 3.9783330 -3.7856100
vn -0.7288176 0.6740912 0.1201082
v 7.4487991 3.9783330 -10.2138901
vn -0.7002377 -0.7113680 0.0601903
v 7.4487991 2.2325490 -10.2138901
vn 0.5490098 0.8332302 -0.0656938
v 7.8008828 3.9783330 -10.2138882
vn 0.7864912 -0.6085047 -0.1056113
v 7.8070464 2.2326810 -10.1064615
vn -0.4835173 0.7306789 0.4819953
v 6.3234458 3.9783330 -14.4268074
vn -0.5947225 -0.7306789 0.3352812
v 6.3234458 2.2325490 -14.4268074
vn 0.6048500 0.7291276 -0.3202022
v 6.7498899 3.9783330 -14.5425138
vn 0.4974844 -0.7304716 -0.4678893
v 6.7498899 2.2325490 -14.5425138
vn -0.1210882 0.6927367 0.7109526
v 3.1947629 3.9783330 -16.2795658
vn -0.2692824 -0.7161760 0.6438780
v 3.1947629 2.2325490 -16.2795658
vn 0.3782198 0.6754198 -0.6330544
v 3.4954190 3.9783330 -16.6033707
vn 0.1869355 -0.7094176 -0.6795452
v 3.4954190 2.2325490 -16.6033707
vn -0.0763848 -0.6357307 -0.7681223
v -0.0000032 2.2361317 -17.0932198
vn 0.0514557 -0.4639002 0.8843918
v 1.5921223 0.0895593 5.2381182
vn 0.0397778 0.7481980 0.6622821
v 1.4923730 6.1219859 5.2378631
vn -0.0385664 0.5828277 0.8116800
v -1.6271926 6.1202965 5.2376313
vn 0.0000792 -0.6572210 -0.7536981
v -0.0653473 0.1785885 -2.3703570
vn 0.9244429 -0.2788686 -0.2600724
v 7.9689512 2.1298220 -3.8014860
vn -0.1947038 0.8858097 0.4212263
v 0.3401901 6.0322967 -1.3597592
vn -0.3935957 0.7153483 0.5773727
v -0.0000000 8.5218086 -3.1883399
vn 0.9546829 0.2704859 -0.1241691
v 0.9380442 8.4330816 -3.4198852
vn -0.4876035 -0.7817281 -0.3887723
v -0.0000000 8.0657282 -3.3313079
vn -0.8483842 0.0256012 0.5287617
v -0.0000010 9.7700062 -7.7784290
vn 0.6826780 0.2094155 -0.7000685
v 0.9380436 9.8265877 -8.3501072
vn -0.0352064 0.9936200 -0.1071443
v -0.0000000 9.4968948 -11.3562021
vn 0.0740528 -0.9943897 0.0755339
v 0.9380440 9.2633610 -12.4183407
vn 0.0108190 0.7602107 -0.6495866
v 0.3328378 8.3059330 -15.2757301
vn 0.0335339 0.5198243 0.8536148
v 0.8243601 4.6074214 -16.5932064
vn -0.1284341 0.5411564 -0.8310562
v 0.1403291 4.6748843 -16.9595165
vn -0.0412100 -0.2636709 0.9637321
v -0.0000028 2.2284448 -16.6367817
vn -0.0016176 -0.2855526 -0.9583617
v 0.0092590 0.5591630 -2.4838159
vn 0.4387933 -0.1445198 -0.8868904
v -6.5065184 5.6522446 -3.5986917
vn 0.0035217 0.4040116 -0.9147471
v -0.0065433 5.6520901 -2.4797697
vn 0.8050961 -0.2696625 -0.5283015
v -7.4133582 2.3536038 -3.6672368
vn 0.5560476 0.3665063 -0.7459787
v -6.5071058 0.5587350 -3.5996649
vn -0.5948740 -0.4394442 -0.6730630
v 6.5071049 5.6521468 -3.5996661
vn -0.8092591 0.3241772 -0.4899071
v 7.4284353 3.8719473 -3.6815777
vn -0.5737407 0.1565374 -0.8039389
v 6.5065184 0.5586374 -3.5986922
vn 0.6379314 0.1032875 -0.7631352
v -7.2151747 2.9557631 -2.2582972
vn 0.3743806 0.5009002 -0.7803450
v -6.5071063 0.5587350 -2.2582970
vn -0.3772307 -0.4952998 -0.7825440
v 6.5071049 5.6521468 -2.2582974
vn -0.5090434 0.6782253 -0.5299862
v 6.5071063 0.5587350 -2.2582977
vn -0.7620609 0.0043589 -0.6474906
v 7.2283592 3.0371826 -2.2586324
vn -0.3453450 -0.9320722 0.1094461
v -7.3270183 0.1774884 4.2710690
vn -0.0000250 0.9975535 -0.0699084
v -0.0000153 6.0322976 4.5563054
vn -0.7649882 -0.0841034 0.6385292
v -7.9727135 2.1178286 4.2171960
vn -0.8494074 0.1653853 0.5011535
v -7.9764581 4.0703869 4.2145095
vn -0.4249271 0.8569151 0.2917764
v -7.3314495 6.0342374 4.2956319
# 84 vertices, 0 vertices normals


usemtl material_0
f 84//84 2//2 81//81
f 81//81 2//2 52//52
f 80//80 20//20 53//53
f 53//53 67//67 74//74
f 50//50 51//51 52//52
f 1//1 52//52 2//2
f 50//50 52//52 1//1
f 32//32 53//53 74//74
f 3//3 28//28 69//69
f 4//4 18//18 68//68
f 4//4 68//68 70//70
f 2//2 83//83 82//82
f 1//1 2//2 82//82
f 1//1 82//82 80//80
f 20//20 5//5 70//70
f 6//6 18//18 4//4
f 2//2 84//84 83//83
f 70//70 5//5 10//10
f 70//70 10//10 8//8
f 7//7 8//8 12//12
f 7//7 12//12 11//11
f 4//4 70//70 8//8
f 4//4 8//8 7//7
f 5//5 6//6 9//9
f 5//5 9//9 10//10
f 6//6 4//4 7//7
f 6//6 7//7 9//9
f 14//14 13//13 17//17
f 10//10 9//9 13//13
f 10//10 13//13 14//14
f 9//9 7//7 11//11
f 9//9 11//11 13//13
f 8//8 10//10 14//14
f 8//8 14//14 12//12
f 13//13 11//11 15//15
f 13//13 15//15 17//17
f 12//12 14//14 17//17
f 12//12 17//17 16//16
f 11//11 12//12 16//16
f 11//11 16//16 15//15
f 25//25 66//66 65//65
f 49//49 25//25 65//65
f 18//18 3//3 69//69
f 18//18 69//69 68//68
f 20//20 70//70 71//71
f 81//81 52//52 51//51
f 19//19 55//55 56//56
f 19//19 56//56 21//21
f 82//82 83//83 6//6
f 82//82 6//6 5//5
f 80//80 82//82 5//5
f 18//18 81//81 19//19
f 83//83 84//84 18//18
f 83//83 18//18 6//6
f 18//18 19//19 3//3
f 80//80 5//5 20//20
f 3//3 19//19 21//21
f 3//3 21//21 58//58
f 21//21 56//56 59//59
f 21//21 59//59 22//22
f 58//58 21//21 22//22
f 58//58 22//22 59//59
f 61//61 23//23 24//24
f 22//22 59//59 61//61
f 22//22 61//61 23//23
f 59//59 22//22 23//23
f 59//59 23//23 61//61
f 23//23 61//61 63//63
f 23//23 63//63 24//24
f 24//24 63//63 65//65
f 24//24 65//65 25//25
f 24//24 25//25 65//65
f 17//17 15//15 25//25
f 17//17 25//25 49//49
f 15//15 16//16 66//66
f 15//15 66//66 25//25
f 16//16 17//17 49//49
f 16//16 49//49 66//66
f 31//31 81//81 27//27
f 81//81 51//51 27//27
f 50//50 26//26 27//27
f 50//50 27//27 51//51
f 28//28 73//73 72//72
f 53//53 20//20 71//71
f 53//53 71//71 67//67
f 29//29 36//36 73//73
f 33//33 32//32 54//54
f 26//26 33//33 35//35
f 54//54 40//40 36//36
f 54//54 36//36 29//29
f 32//32 34//34 54//54
f 29//29 73//73 28//28
f 33//33 53//53 32//32
f 26//26 35//35 31//31
f 26//26 31//31 27//27
f 34//34 40//40 54//54
f 34//34 38//38 40//40
f 37//37 41//41 42//42
f 37//37 42//42 38//38
f 73//73 37//37 38//38
f 73//73 38//38 34//34
f 40//40 39//39 36//36
f 36//36 39//39 37//37
f 36//36 37//37 73//73
f 44//44 48//48 47//47
f 44//44 47//47 43//43
f 40//40 44//44 43//43
f 40//40 43//43 39//39
f 39//39 43//43 41//41
f 39//39 41//41 37//37
f 38//38 42//42 44//44
f 38//38 44//44 40//40
f 43//43 47//47 45//45
f 43//43 45//45 41//41
f 42//42 46//46 48//48
f 42//42 48//48 44//44
f 41//41 45//45 46//46
f 41//41 46//46 42//42
f 64//64 65//65 66//66
f 34//34 32//32 74//74
f 34//34 74//74 79//79
f 28//28 72//72 69//69
f 73//73 34//34 79//79
f 55//55 57//57 56//56
f 35//35 54//54 29//29
f 33//33 54//54 35//35
f 33//33 80//80 53//53
f 28//28 55//55 81//81
f 28//28 81//81 31//31
f 29//29 28//28 31//31
f 28//28 3//3 55//55
f 56//56 59//59 58//58
f 55//55 56//56 58//58
f 55//55 58//58 3//3
f 3//3 58//58 57//57
f 3//3 57//57 55//55
f 57//57 60//60 59//59
f 57//57 59//59 56//56
f 58//58 59//59 60//60
f 58//58 60//60 57//57
f 61//61 24//24 63//63
f 61//61 63//63 62//62
f 60//60 62//62 61//61
f 60//60 61//61 59//59
f 59//59 61//61 62//62
f 59//59 62//62 60//60
f 63//63 65//65 24//24
f 61//61 63//63 24//24
f 62//62 63//63 61//61
f 24//24 65//65 64//64
f 24//24 64//64 63//63
f 63//63 64//64 65//65
f 47//47 65//65 64//64
f 47//47 64//64 45//45
f 48//48 49//49 65//65
f 48//48 65//65 47//47
f 45//45 64//64 66//66
f 45//45 66//66 46//46
f 46//46 66//66 49//49
f 46//46 49//49 48//48
f 70//70 68//68 30//30
f 70//70 30//30 75//75
f 68//68 77//77 30//30
f 71//71 70//70 75//75
f 71//71 75//75 76//76
f 67//67 71//71 76//76
f 72//72 73//73 79//79
f 72//72 79//79 77//77
f 69//69 72//72 77//77
f 68//68 69//69 77//77
f 79//79 74//74 78//78
f 74//74 67//67 76//76
f 74//74 76//76 78//78
f 75//75 30//30 77//77
f 78//78 76//76 79//79
f 79//79 76//76 75//75
f 79//79 75//75 77//77
f 35//35 29//29 31//31
f 26//26 50//50 80//80
f 26//26 80//80 33//33
f 1//1 80//80 50//50
f 19//19 81//81 55//55
f 18//18 84//84 81//81
# 183 faces, 0 coords texture

# End of File
