####
#
# OBJ File Generated by Meshlab
#
####
# Object headset_2.obj
#
# Vertices: 193
# Faces: 368
#
####
mtllib ./headset_2.obj.mtl

vn 0.0104182 -0.0014009 -0.9999447
v 1.2444696 2.9923458 -2.4053054
vn 0.1332309 0.1517285 -0.9794019
v 4.5695138 4.3660274 -2.4053056
vn -0.0345692 0.0218079 -0.9991643
v 1.8160104 4.3685708 -2.4053054
vn 0.0545782 0.2712713 -0.9609542
v 3.1932888 4.9375696 -2.4053054
vn 0.0306381 -0.0073859 -0.9995033
v 5.1385126 2.9887502 -2.4053059
vn -0.0063762 0.0083569 -0.9999447
v 4.5669708 1.6125244 -2.4053054
vn 0.0014009 0.0104184 -0.9999447
v 3.1896930 1.0435266 -2.4053054
vn 0.0083573 0.0063763 -0.9999447
v 1.8134673 1.6150674 -2.4053054
vn -0.1772285 -0.3282139 -0.9278286
v 3.8933032 4.3759518 -2.5240886
vn -0.0336586 0.0013825 -0.9994324
v 1.7576628 2.9808967 -2.3999741
vn 0.0051717 -0.0883031 -0.9960802
v 2.1707976 3.9975920 -2.3999746
vn -0.0046588 -0.4277827 -0.9038696
v 3.1914511 4.4624834 -2.3250425
vn -0.3352703 -0.3057365 -0.8911335
v 4.2434468 4.0425038 -2.3052909
vn -0.0452989 -0.0576899 -0.9973063
v 4.6371322 3.0388920 -2.4316716
vn 0.0373747 -0.0437452 -0.9983434
v 4.2121854 1.9835037 -2.3999746
vn 0.0005414 -0.0355742 -0.9993669
v 3.2011425 1.5567189 -2.3999741
vn -0.0231514 -0.0225317 -0.9994780
v 2.1844459 1.9698530 -2.3999743
vn 0.0175579 0.0365292 -0.9991783
v 3.4552457 3.1821523 -2.5696321
vn 0.8704897 0.3440695 0.3519430
v 8.1751690 3.8417115 0.1973177
vn 0.5355321 -0.0796706 -0.8407485
v 8.1751690 2.6999424 -1.1559875
vn 0.7834604 0.5039302 -0.3636540
v 8.1277819 3.8377888 -0.5938020
vn -0.1169859 -0.1067768 -0.9873769
v 7.6446896 3.2811511 -1.1559886
vn 0.9054956 0.0556614 0.4206894
v 8.1503677 2.3048005 0.4540489
vn -0.1288134 0.6686555 0.7323299
v 7.6446891 3.1140871 0.7683677
vn 0.9512221 -0.2100315 -0.2259720
v 8.1649609 2.1433074 -0.5938058
vn 0.0014007 -0.0104174 -0.9999447
v -3.1932888 4.9375691 -2.4053056
vn 0.0545779 -0.2712699 -0.9609547
v -3.1896930 1.0435266 -2.4053054
vn 0.0306373 0.0073856 -0.9995033
v -1.2444696 2.9923458 -2.4053054
vn -0.0063757 -0.0083568 -0.9999447
v -1.8160104 4.3685708 -2.4053054
vn 0.0083567 -0.0063759 -0.9999447
v -4.5695138 4.3660274 -2.4053054
vn 0.0104183 0.0014009 -0.9999447
v -5.1385126 2.9887497 -2.4053056
vn -0.0345687 -0.0218075 -0.9991644
v -4.5669708 1.6125245 -2.4053056
vn 0.1332297 -0.1517272 -0.9794022
v -1.8134673 1.6150674 -2.4053054
vn -0.0452996 0.0576896 -0.9973063
v -1.7458501 2.9422045 -2.4316704
vn 0.0373746 0.0437444 -0.9983434
v -2.1707978 3.9975917 -2.3999746
vn 0.0005416 0.0355740 -0.9993669
v -3.1818399 4.4243741 -2.3999748
vn -0.0231515 0.0225317 -0.9994780
v -4.1985345 4.0112400 -2.3999748
vn -0.0336583 -0.0013825 -0.9994324
v -4.6253181 3.0001986 -2.3999743
vn 0.0051724 0.0883032 -0.9960802
v -4.2121835 1.9835033 -2.3999746
vn -0.1772288 0.3282146 -0.9278282
v -2.4896777 1.6051437 -2.5240877
vn -0.3352700 0.3057362 -0.8911338
v -2.1395350 1.9385910 -2.3052900
vn -0.0046584 0.4277826 -0.9038697
v -3.1915309 1.5186118 -2.3250415
vn 0.0175586 -0.0365297 -0.9991783
v -2.9277301 2.7989404 -2.5696306
vn -0.5871817 -0.3105673 0.7475062
v -8.1751690 2.5503609 0.6082977
vn -0.5500728 0.2030144 -0.8100649
v -8.1751690 3.1140876 -1.2540990
vn -0.0414883 0.0249983 0.9988262
v -7.6446896 3.4307325 0.6082987
vn -0.9117051 0.3979682 0.1020549
v -8.1503677 3.9112849 0.0910525
vn 0.1037785 0.2376507 -0.9657910
v -7.6446891 3.2811542 -1.1559868
vn 0.0063491 -0.7029827 0.7111786
v -7.6446891 2.1393845 0.1973217
vn -0.8249414 -0.5312344 -0.1930325
v -8.1649609 2.1433082 -0.5938066
vn -0.1378756 -0.5862495 0.7983118
v -4.4771199 0.0888970 4.8810439
vn -0.0560541 -0.7389224 0.6714549
v -1.4923730 0.0888970 5.2378631
vn -0.0312315 0.5850937 0.8103641
v -1.4923739 6.1219859 5.2378631
vn -0.0983058 0.7424679 0.6626291
v -4.4771209 6.1219859 4.8810430
vn 0.0929353 0.8705733 -0.4831822
v -4.5112629 6.0322671 -3.1905305
vn 0.0394827 0.7638302 -0.6442084
v -1.4647590 6.0323000 -2.6042390
vn -0.1635386 0.0026122 0.9865335
v -4.9550133 3.3660965 4.8178735
vn -0.5166149 0.5317976 0.6710442
v -7.4620314 6.1223149 4.2752943
vn -0.7617372 -0.6211346 0.1842507
v -7.4618502 0.0887358 4.2733073
vn -0.8166764 -0.0809248 0.5713939
v -8.1195450 2.1056833 4.1907444
vn -0.8972539 0.1796449 0.4033154
v -8.1192493 4.1105895 4.1919894
vn 0.6557100 0.2920624 -0.6962355
v -7.4487982 3.9783759 -3.6914735
vn 0.3787006 -0.3741085 -0.8465393
v -7.4487963 2.2325103 -3.6920159
vn -0.5840722 -0.4443564 -0.6792696
v -7.8008838 2.2325490 -3.7856100
vn -0.1505237 0.6052923 -0.7816418
v -7.8008838 3.9783330 -3.7856100
vn 0.6937399 0.7097974 0.1221172
v -7.4488001 3.9783330 -10.2138891
vn 0.7017691 -0.7097833 0.0610566
v -7.4488001 2.2325490 -10.2138891
vn -0.7026598 0.7093356 -0.0557881
v -7.8008852 3.9783330 -10.2138891
vn -0.6959974 -0.7093227 -0.1115757
v -7.8008852 2.2325490 -10.2138891
vn 0.4835174 0.7306789 0.4819952
v -6.3234472 3.9783330 -14.4268074
vn 0.5947226 -0.7306789 0.3352812
v -6.3234472 2.2325490 -14.4268074
vn -0.6033192 0.7302552 -0.3205203
v -6.7498922 3.9783330 -14.5425129
vn -0.4970011 -0.7302552 -0.4687401
v -6.7498922 2.2325490 -14.5425129
vn 0.1698971 0.7094963 0.6839226
v -3.1947651 3.9783330 -16.2795658
vn 0.2688535 -0.7148427 0.6455368
v -3.1947651 2.2325490 -16.2795658
vn -0.2794463 0.7155142 -0.6402728
v -3.4954200 3.9783330 -16.6033707
vn -0.1848586 -0.7096697 -0.6798502
v -3.4954200 2.2325490 -16.6033707
vn -0.2168257 0.9132276 0.3449669
v -0.9380430 6.0323000 -1.2920650
vn -0.6762871 0.6244577 -0.3907536
v -7.3237958 6.0323000 -3.8014855
vn -0.6217948 0.7433472 -0.2465892
v -0.9380430 6.0323000 -1.7700289
vn -0.4944706 -0.1798331 -0.8503875
v -7.9689527 2.1298234 -3.8014858
vn -0.4898384 0.1032072 -0.8656828
v -7.9689527 4.0810604 -3.8014860
vn -0.0265463 -0.2565840 -0.9661574
v -7.3237748 0.1785758 -3.8013153
vn 0.1081099 -0.5931689 -0.7977863
v -1.8099687 0.1785756 -2.6466470
vn -0.7225914 0.6073075 0.3302110
v -0.9380440 8.5218086 -3.1883399
vn -0.7212492 -0.5213506 -0.4560628
v -0.9380440 8.0657282 -3.3313079
vn -0.7133073 0.7006112 0.0183519
v -0.9380440 9.9694252 -8.0069580
vn -0.7141331 -0.6892177 -0.1224454
v -0.9380440 9.6077194 -8.0497885
vn -0.7090912 0.6822374 -0.1781624
v -0.9380450 9.5573206 -11.9000454
vn -0.7089374 -0.6940129 0.1255145
v -0.9380450 9.2028103 -11.8164463
vn -0.7317926 0.4417733 -0.5189567
v -0.9380450 8.3914843 -15.3012896
vn -0.7326738 -0.5673308 0.3759320
v -0.9380450 8.1164322 -15.0625143
vn -0.9007677 0.0808006 -0.4267188
v -0.9380460 4.9495101 -16.9525566
vn -0.4275835 -0.1767608 0.8865258
v -0.9380460 4.8503919 -16.6020699
vn -0.1221295 -0.6915499 -0.7119291
v -1.4466341 2.2325490 -16.8781242
vn -0.3947672 0.5348066 0.7470882
v -0.9457410 3.9783330 -16.4766006
vn -0.3174706 0.2197240 -0.9224607
v -0.9457410 3.9783330 -16.8639450
vn 0.1156231 -0.7453262 0.6565975
v 4.4771209 0.0888970 4.8810430
vn 0.0981809 0.7420333 0.6631344
v 4.4771209 6.1219859 4.8810430
vn -0.0747666 0.8215592 -0.5651996
v 1.6499265 6.0327020 -2.6159763
vn 0.8166764 -0.0809249 0.5713939
v 8.1195450 2.1056840 4.1907449
vn 0.4904755 0.0988160 -0.8658344
v 7.9689512 4.0810604 -3.8014860
vn 0.7022945 -0.6078625 -0.3705209
v -6.5071049 5.6521468 -2.2582970
vn 0.1702790 0.0039742 0.9853879
v 4.9550128 3.3661027 4.8178749
vn 0.5166150 0.5317980 0.6710439
v 7.4620309 6.1223154 4.2752929
vn 0.1040691 -0.3603998 -0.9269745
v 7.3236680 0.1784638 -3.7985311
vn 0.6035200 -0.7862427 0.1326123
v 7.4618502 0.0887358 4.2733073
vn -0.1991334 0.3178422 -0.9269964
v 6.7738032 6.0323000 -3.6790249
vn -0.3753700 -0.3641397 -0.8523495
v 7.4487982 2.2325230 -3.6910305
vn -0.5375733 0.1920303 -0.8210599
v 7.4487987 3.9783933 -3.6929753
vn 0.8972539 0.1796453 0.4033151
v 8.1192493 4.1105871 4.1919894
vn 0.5834409 -0.4458110 -0.6788589
v 7.8008838 2.2325490 -3.7856100
vn 0.1514679 0.6039023 -0.7825341
v 7.8008838 3.9783330 -3.7856100
vn -0.6937339 0.7098032 0.1221177
v 7.4487991 3.9783330 -10.2138901
vn -0.7017690 -0.7097833 0.0610572
v 7.4487991 2.2325490 -10.2138901
vn 0.7026598 0.7093356 -0.0557882
v 7.8008828 3.9783330 -10.2138882
vn 0.6959930 -0.7093269 -0.1115759
v 7.8008828 2.2325490 -10.2138882
vn -0.4835173 0.7306789 0.4819953
v 6.3234458 3.9783330 -14.4268074
vn -0.5947225 -0.7306789 0.3352812
v 6.3234458 2.2325490 -14.4268074
vn 0.6033192 0.7302552 -0.3205203
v 6.7498899 3.9783330 -14.5425138
vn 0.4970011 -0.7302552 -0.4687401
v 6.7498899 2.2325490 -14.5425138
vn -0.1698970 0.7094963 0.6839226
v 3.1947629 3.9783330 -16.2795658
vn -0.2688534 -0.7148427 0.6455368
v 3.1947629 2.2325490 -16.2795658
vn 0.2794463 0.7155142 -0.6402728
v 3.4954190 3.9783330 -16.6033707
vn 0.1848586 -0.7096697 -0.6798502
v 3.4954190 2.2325490 -16.6033707
vn -0.1665860 0.0312556 0.9855314
v -0.0000010 3.9783330 -16.6456337
vn -0.3228054 0.0670438 -0.9440878
v -0.0000010 3.9783330 -17.0874863
vn 0.0000000 -0.7075180 -0.7066953
v -0.0000010 2.2325490 -17.0874863
vn 0.0578713 -0.3247899 0.9440140
v 1.5921223 0.0895593 5.2381182
vn 0.0400168 0.7483786 0.6620637
v 1.4923730 6.1219859 5.2378631
vn -0.0743186 -0.0002918 0.9972345
v -1.6403612 3.0661175 5.2379570
vn 0.1540222 0.9571565 0.2452112
v 0.9380429 6.0323000 -1.2920650
vn -0.1287820 -0.7448276 -0.6547114
v 4.3942738 0.1785830 -3.1491983
vn 0.4938799 -0.1809682 -0.8504900
v 7.9689512 2.1298220 -3.8014860
vn -0.4872610 0.7825136 0.3876201
v 0.0000000 6.0323000 -1.2920650
vn 0.4150692 0.8774989 -0.2402361
v 7.3237972 6.0323000 -3.8014870
vn 0.7805899 0.5430530 -0.3094718
v 0.9380430 6.0323000 -1.7700289
vn -0.2964752 0.1671898 -0.9402925
v -0.0000000 6.0323000 -1.7700289
vn -0.0307422 -0.8318558 -0.5541397
v 1.4647585 0.1785830 -2.6042390
vn 0.7225914 0.6073076 0.3302110
v 0.9380440 8.5218086 -3.1883399
vn -0.4632010 0.6699745 0.5801543
v -0.0000000 8.5218086 -3.1883399
vn 0.7212488 -0.5213510 -0.4560628
v 0.9380440 8.0657282 -3.3313079
vn -0.4617893 -0.7727463 -0.4354467
v -0.0000000 8.0657282 -3.3313079
vn 0.7133080 0.7006105 0.0183517
v 0.9380440 9.9694252 -8.0069580
vn -0.4535381 0.8798260 0.1421597
v -0.0000010 9.9694252 -8.0069580
vn 0.7141325 -0.6892183 -0.1224455
v 0.9380430 9.6077194 -8.0497885
vn -0.4543882 -0.8903204 -0.0293434
v -0.0000010 9.6077194 -8.0497885
vn 0.7090915 0.6822370 -0.1781625
v 0.9380440 9.5573206 -11.9000454
vn -0.4492268 0.8789451 -0.1601593
v 0.0000000 9.5573206 -11.9000454
vn 0.7089374 -0.6940129 0.1255145
v 0.9380440 9.2028103 -11.8164463
vn -0.4490704 -0.8654705 0.2220287
v 0.0000000 9.2028103 -11.8164463
vn 0.7317926 0.4417733 -0.5189567
v 0.9380440 8.3914843 -15.3012896
vn -0.4730171 0.7330149 -0.4888190
v -0.0000010 8.3914843 -15.3012896
vn 0.7326738 -0.5673309 0.3759319
v 0.9380440 8.1164322 -15.0625143
vn -0.4739704 -0.5691030 0.6719181
v -0.0000010 8.1164322 -15.0625153
vn 0.9007677 0.0808010 -0.4267187
v 0.9380440 4.9495101 -16.9525566
vn -0.2500878 0.2271329 -0.9412050
v -0.0000010 4.9495101 -16.9525566
vn 0.4275835 -0.1767606 0.8865258
v 0.9380440 4.8503919 -16.6020699
vn -0.7138590 -0.1699977 0.6793425
v -0.0000010 4.8503909 -16.6020699
vn 0.1221294 -0.6915500 -0.7119291
v 1.4466320 2.2325490 -16.8781242
vn 0.0000000 -0.5674366 0.8234171
v -0.0000028 2.2284448 -16.6367817
vn 0.3947671 0.5348070 0.7470880
v 0.9457400 3.9783330 -16.4766006
vn 0.3174705 0.2197241 -0.9224608
v 0.9457400 3.9783330 -16.8639450
vn -0.1181985 -0.1720857 -0.9779651
v 1.3786980 0.5587350 -2.6644781
vn 0.0586644 0.4713119 -0.8800134
v -1.5618008 0.5585738 -2.6731296
vn 0.7554708 -0.1435532 -0.6392624
v -6.5065184 5.6522446 -3.5986917
vn 0.1212402 0.1558479 -0.9803123
v -1.3786980 5.6521468 -2.6644781
vn 0.7761725 0.0973546 -0.6229594
v -7.0803180 2.2565391 -3.6006291
vn 0.7692542 -0.1529779 -0.6203593
v -7.0803180 3.9543440 -3.6006291
vn 0.5988163 0.3856419 -0.7019256
v -6.5071058 0.5587350 -3.5996649
vn -0.5976645 -0.3814650 -0.7051820
v 6.5071049 5.6521468 -3.5996661
vn -0.0559748 -0.4578703 -0.8872551
v 1.5334611 5.6523042 -2.6680052
vn -0.7693094 0.1527347 -0.6203509
v 7.0803180 2.2565391 -3.6006300
vn -0.7754227 -0.0978478 -0.6238154
v 7.0803180 3.9543440 -3.6006300
vn -0.4151163 0.0802296 -0.9062238
v 6.5065184 0.5586374 -3.5986922
vn 0.9252272 0.2044702 -0.3196040
v -7.0803180 2.2565386 -2.2582970
vn 0.5919852 -0.0642468 -0.8033841
v -7.0803180 3.9543440 -2.2582970
vn 0.2423374 0.5933779 -0.7675775
v -6.5071063 0.5587350 -2.2582970
vn -0.2423354 -0.5933759 -0.7675797
v 6.5071049 5.6521468 -2.2582974
vn -0.7022948 0.6078624 -0.3705204
v 6.5071063 0.5587350 -2.2582977
vn -0.5919849 0.0642468 -0.8033842
v 7.0803180 2.2565377 -2.2582979
vn -0.9252269 -0.2044707 -0.3196044
v 7.0803180 3.9543440 -2.2582970
vn -0.3709120 -0.9264007 -0.0648546
v -7.3240376 0.1786636 3.5184689
vn -0.0029338 -0.9980299 -0.0626724
v 1.4647572 0.1785830 4.3614082
vn -0.0000009 0.9989291 -0.0462666
v -0.0000153 6.0322976 4.5563054
vn -0.9825668 -0.1617638 -0.0916239
v -7.9689512 2.1298220 3.2986851
vn -0.9835101 0.1597912 -0.0847042
v -7.9689512 4.0810609 3.2986851
vn -0.4894487 0.8671772 -0.0918895
v -7.3238029 6.0322957 3.3710949
vn -0.0087911 -0.9987747 -0.0487018
v 4.3942780 0.1785830 3.9835610
vn 0.5801911 -0.8125723 -0.0557190
v 7.3237972 0.1785831 3.3706787
vn 0.9834713 -0.1593972 -0.0858875
v 7.9689512 2.1298220 3.2986851
vn 0.9835101 0.1597911 -0.0847041
v 7.9689512 4.0810609 3.2986851
vn 0.5744312 0.8114178 -0.1078425
v 7.3238020 6.0322986 3.3711033
# 193 vertices, 0 vertices normals


usemtl material_0
f 188//188 58//58 54//54
f 188//188 54//54 185//185
f 185//185 54//54 53//53
f 183//183 83//83 84//84
f 133//133 139//139 164//164
f 133//133 164//164 175//175
f 129//129 130//130 53//53
f 129//129 53//53 131//131
f 131//131 53//53 54//54
f 131//131 54//54 57//57
f 52//52 131//131 57//57
f 52//52 57//57 51//51
f 129//129 131//131 52//52
f 106//106 133//133 175//175
f 56//56 100//100 172//172
f 56//56 172//172 167//167
f 62//62 55//55 166//166
f 62//62 166//166 169//169
f 82//82 62//62 65//65
f 57//57 61//61 60//60
f 51//51 57//57 60//60
f 51//51 60//60 59//59
f 81//81 82//82 65//65
f 81//81 65//65 64//64
f 83//83 81//81 63//63
f 82//82 79//79 55//55
f 82//82 55//55 62//62
f 57//57 54//54 58//58
f 57//57 58//58 61//61
f 63//63 81//81 64//64
f 63//63 64//64 69//69
f 63//63 69//69 67//67
f 66//66 67//67 71//71
f 66//66 71//71 70//70
f 62//62 63//63 67//67
f 62//62 67//67 66//66
f 64//64 65//65 68//68
f 64//64 68//68 69//69
f 65//65 62//62 66//66
f 65//65 66//66 68//68
f 73//73 72//72 76//76
f 73//73 76//76 77//77
f 69//69 68//68 72//72
f 69//69 72//72 73//73
f 68//68 66//66 70//70
f 68//68 70//70 72//72
f 67//67 69//69 73//73
f 67//67 73//73 71//71
f 161//161 95//95 128//128
f 72//72 70//70 74//74
f 72//72 74//74 76//76
f 71//71 73//73 77//77
f 71//71 77//77 75//75
f 70//70 71//71 75//75
f 70//70 75//75 74//74
f 96//96 161//161 126//126
f 95//95 97//97 127//127
f 95//95 127//127 128//128
f 96//96 94//94 93//93
f 96//96 93//93 97//97
f 55//55 56//56 167//167
f 55//55 167//167 166//166
f 83//83 63//63 168//168
f 83//83 168//168 170//170
f 185//185 53//53 130//130
f 78//78 135//135 141//141
f 78//78 141//141 85//85
f 183//183 84//84 139//139
f 183//183 139//139 184//184
f 186//186 187//187 82//82
f 186//186 82//82 81//81
f 183//183 186//186 81//81
f 55//55 185//185 78//78
f 55//55 78//78 80//80
f 187//187 188//188 79//79
f 187//187 79//79 82//82
f 55//55 80//80 56//56
f 56//56 80//80 138//138
f 56//56 138//138 100//100
f 183//183 81//81 83//83
f 138//138 80//80 86//86
f 138//138 86//86 143//143
f 80//80 78//78 85//85
f 80//80 85//85 86//86
f 85//85 141//141 145//145
f 85//85 145//145 87//87
f 143//143 86//86 88//88
f 143//143 88//88 147//147
f 86//86 85//85 87//87
f 86//86 87//87 88//88
f 151//151 90//90 92//92
f 151//151 92//92 155//155
f 87//87 145//145 149//149
f 87//87 149//149 89//89
f 147//147 88//88 90//90
f 147//147 90//90 151//151
f 88//88 87//87 89//89
f 88//88 89//89 90//90
f 90//90 89//89 91//91
f 90//90 91//91 92//92
f 89//89 149//149 153//153
f 89//89 153//153 91//91
f 126//126 159//159 94//94
f 126//126 94//94 96//96
f 91//91 153//153 157//157
f 91//91 157//157 93//93
f 155//155 92//92 94//94
f 155//155 94//94 159//159
f 92//92 91//91 93//93
f 92//92 93//93 94//94
f 76//76 74//74 96//96
f 76//76 96//96 97//97
f 77//77 76//76 97//97
f 77//77 97//97 95//95
f 74//74 75//75 161//161
f 74//74 161//161 96//96
f 75//75 77//77 95//95
f 75//75 95//95 161//161
f 97//97 93//93 157//157
f 97//97 157//157 127//127
f 193//193 185//185 99//99
f 193//193 99//99 105//105
f 185//185 130//130 99//99
f 63//63 62//62 169//169
f 63//63 169//169 168//168
f 129//129 104//104 99//99
f 129//129 99//99 130//130
f 129//129 98//98 104//104
f 108//108 110//110 174//174
f 108//108 174//174 171//171
f 84//84 83//83 170//170
f 84//84 170//170 165//165
f 139//139 84//84 165//165
f 139//139 165//165 164//164
f 102//102 113//113 110//110
f 190//190 106//106 134//134
f 104//104 101//101 111//111
f 98//98 107//107 101//101
f 98//98 101//101 104//104
f 134//134 112//112 113//113
f 134//134 113//113 102//102
f 106//106 109//109 134//134
f 102//102 110//110 108//108
f 102//102 108//108 136//136
f 190//190 133//133 106//106
f 104//104 111//111 105//105
f 104//104 105//105 99//99
f 109//109 112//112 134//134
f 109//109 115//115 117//117
f 109//109 117//117 112//112
f 114//114 118//118 119//119
f 114//114 119//119 115//115
f 110//110 114//114 115//115
f 110//110 115//115 109//109
f 112//112 117//117 116//116
f 112//112 116//116 113//113
f 113//113 116//116 114//114
f 113//113 114//114 110//110
f 121//121 125//125 124//124
f 121//121 124//124 120//120
f 117//117 121//121 120//120
f 117//117 120//120 116//116
f 116//116 120//120 118//118
f 116//116 118//118 114//114
f 115//115 119//119 121//121
f 115//115 121//121 117//117
f 161//161 128//128 160//160
f 120//120 124//124 122//122
f 120//120 122//122 118//118
f 119//119 123//123 125//125
f 119//119 125//125 121//121
f 118//118 122//122 123//123
f 118//118 123//123 119//119
f 162//162 126//126 161//161
f 160//160 128//128 127//127
f 160//160 127//127 163//163
f 162//162 163//163 156//156
f 162//162 156//156 158//158
f 109//109 106//106 175//175
f 109//109 175//175 173//173
f 100//100 108//108 171//171
f 100//100 171//171 172//172
f 110//110 109//109 173//173
f 110//110 173//173 174//174
f 132//132 140//140 141//141
f 132//132 141//141 135//135
f 191//191 134//134 102//102
f 191//191 102//102 192//192
f 190//190 134//134 191//191
f 189//189 184//184 139//139
f 189//189 139//139 133//133
f 190//190 189//189 133//133
f 136//136 132//132 185//185
f 136//136 185//185 193//193
f 192//192 102//102 136//136
f 192//192 136//136 193//193
f 108//108 100//100 132//132
f 108//108 132//132 136//136
f 100//100 137//137 132//132
f 100//100 138//138 137//137
f 141//141 145//145 147//147
f 141//141 147//147 143//143
f 135//135 141//141 143//143
f 135//135 143//143 138//138
f 138//138 143//143 142//142
f 138//138 142//142 137//137
f 137//137 142//142 140//140
f 137//137 140//140 132//132
f 145//145 149//149 151//151
f 145//145 151//151 147//147
f 140//140 144//144 145//145
f 140//140 145//145 141//141
f 143//143 147//147 146//146
f 143//143 146//146 142//142
f 142//142 146//146 144//144
f 142//142 144//144 140//140
f 151//151 155//155 154//154
f 151//151 154//154 150//150
f 144//144 148//148 149//149
f 144//144 149//149 145//145
f 147//147 151//151 150//150
f 147//147 150//150 146//146
f 146//146 150//150 148//148
f 146//146 148//148 144//144
f 153//153 157//157 159//159
f 153//153 159//159 155//155
f 150//150 154//154 152//152
f 150//150 152//152 148//148
f 149//149 153//153 155//155
f 149//149 155//155 151//151
f 148//148 152//152 153//153
f 148//148 153//153 149//149
f 126//126 162//162 158//158
f 126//126 158//158 159//159
f 152//152 156//156 157//157
f 152//152 157//157 153//153
f 155//155 159//159 158//158
f 155//155 158//158 154//154
f 154//154 158//158 156//156
f 154//154 156//156 152//152
f 124//124 163//163 162//162
f 124//124 162//162 122//122
f 125//125 160//160 163//163
f 125//125 163//163 124//124
f 122//122 162//162 161//161
f 122//122 161//161 123//123
f 123//123 161//161 160//160
f 123//123 160//160 125//125
f 163//163 127//127 157//157
f 163//163 157//157 156//156
f 127//127 126//126 159//159
f 127//127 159//159 157//157
f 169//169 166//166 103//103
f 169//169 103//103 177//177
f 166//166 179//179 103//103
f 174//174 173//173 181//181
f 174//174 181//181 182//182
f 170//170 168//168 176//176
f 170//170 176//176 178//178
f 168//168 169//169 177//177
f 168//168 177//177 176//176
f 164//164 165//165 178//178
f 165//165 170//170 178//178
f 171//171 174//174 182//182
f 171//171 182//182 179//179
f 172//172 171//171 179//179
f 167//167 172//172 179//179
f 166//166 167//167 179//179
f 173//173 175//175 180//180
f 173//173 180//180 181//181
f 175//175 164//164 178//178
f 175//175 178//178 180//180
f 177//177 103//103 179//179
f 178//178 176//176 177//177
f 182//182 181//181 179//179
f 180//180 178//178 181//181
f 181//181 178//178 177//177
f 181//181 177//177 179//179
f 111//111 192//192 193//193
f 111//111 193//193 105//105
f 107//107 98//98 189//189
f 107//107 189//189 190//190
f 98//98 129//129 184//184
f 98//98 184//184 189//189
f 107//107 190//190 191//191
f 107//107 191//191 101//101
f 101//101 191//191 192//192
f 101//101 192//192 111//111
f 132//132 135//135 185//185
f 61//61 58//58 188//188
f 61//61 188//188 187//187
f 59//59 183//183 51//51
f 51//51 183//183 52//52
f 59//59 60//60 186//186
f 59//59 186//186 183//183
f 60//60 61//61 187//187
f 60//60 187//187 186//186
f 52//52 183//183 184//184
f 52//52 184//184 129//129
f 78//78 185//185 135//135
f 79//79 188//188 55//55
f 55//55 188//188 185//185
f 13//13 14//14 18//18
f 14//14 15//15 18//18
f 12//12 13//13 18//18
f 10//10 11//11 18//18
f 17//17 10//10 18//18
f 15//15 16//16 18//18
f 11//11 12//12 18//18
f 16//16 17//17 18//18
f 42//42 43//43 41//41
f 34//34 43//43 35//35
f 41//41 43//43 34//34
f 39//39 43//43 42//42
f 37//37 43//43 38//38
f 35//35 43//43 36//36
f 38//38 43//43 39//39
f 36//36 43//43 37//37
f 5//5 6//6 15//15
f 5//5 15//15 14//14
f 4//4 2//2 9//9
f 1//1 3//3 11//11
f 1//1 11//11 10//10
f 8//8 1//1 10//10
f 8//8 10//10 17//17
f 6//6 7//7 16//16
f 6//6 16//16 15//15
f 2//2 5//5 14//14
f 2//2 14//14 9//9
f 3//3 4//4 9//9
f 3//3 9//9 11//11
f 7//7 8//8 17//17
f 7//7 17//17 16//16
f 9//9 13//13 12//12
f 9//9 14//14 13//13
f 11//11 9//9 12//12
f 20//20 22//22 21//21
f 19//19 21//21 24//24
f 20//20 25//25 22//22
f 19//19 24//24 23//23
f 21//21 25//25 20//20
f 19//19 25//25 21//21
f 23//23 25//25 19//19
f 31//31 38//38 39//39
f 31//31 39//39 32//32
f 26//26 36//36 37//37
f 26//26 37//37 30//30
f 28//28 34//34 35//35
f 28//28 35//35 29//29
f 33//33 40//40 34//34
f 33//33 34//34 28//28
f 32//32 39//39 40//40
f 32//32 40//40 27//27
f 30//30 37//37 38//38
f 30//30 38//38 31//31
f 29//29 35//35 36//36
f 29//29 36//36 26//26
f 27//27 40//40 33//33
f 40//40 42//42 41//41
f 40//40 41//41 34//34
f 39//39 42//42 40//40
f 44//44 50//50 49//49
f 45//45 48//48 50//50
f 45//45 47//47 48//48
f 47//47 44//44 46//46
f 44//44 49//49 46//46
f 47//47 45//45 50//50
f 44//44 47//47 50//50
# 368 faces, 0 coords texture

# End of File
